<svg width="160" height="92" viewBox="0 0 160 92" fill="none" xmlns="http://www.w3.org/2000/svg">
<path d="M55.5091 35.039H55.663C63.6875 53.4184 64.2261 54.4627 64.2261 54.4627C65.3693 57.0019 66.4466 57.0349 67.0732 57.0899V57.3427H55.9818V57.0899C58.521 57.0899 56.6193 53.3854 56.6193 53.3854L55.608 51.1979H49.3863C48.7487 52.6599 49.3204 57.0899 53.1237 57.0899V57.3427H44V57.0899C44.9563 57.0239 46.6602 56.7711 49.1005 51.1979L55.5091 35.039ZM52.3103 43.789L49.4852 50.9231H55.4761L52.3103 43.789V43.789Z" fill="#3B3B42"/>
<path d="M75.1521 57.1009V57.3538H67.2266V57.1009C68.4357 56.7492 68.4577 55.4191 68.4577 53.7702V37.3255C68.4577 36.2153 68.073 35.7756 66.7759 35.2919V35.0391L73.844 33.709V53.7702C73.844 55.518 73.9979 56.7822 75.1411 57.1009H75.1521Z" fill="#3B3B42"/>
<path d="M83.9361 57.1009V57.3537H76.0105V57.1009C77.2197 56.7491 77.2416 55.3861 77.2416 53.7702V46.0315C77.2416 44.9212 76.8899 44.4815 75.5928 43.9979V43.745L82.6279 42.4149V53.7592C82.6279 55.507 82.7818 56.7711 83.9251 57.0899L83.9361 57.1009ZM76.5821 38.5896C76.5821 36.9077 77.9122 35.5776 79.594 35.5776C81.2759 35.5776 82.6389 36.9077 82.6389 38.5896C82.6389 40.2714 81.2759 41.6015 79.594 41.6015C77.9122 41.6015 76.5821 40.2714 76.5821 38.5896Z" fill="#3B3B42"/>
<path d="M95.5654 55.9247C95.5654 55.9247 94.3562 57.6396 90.6847 57.6396C87.0133 57.6396 85.0456 56.5623 85.0456 56.5623V52.4071H85.3314C85.969 55.3531 88.5962 57.3538 90.6847 57.3538C92.9382 57.3538 93.4438 54.7266 91.0365 53.1436L87.8377 51.209C84.8587 49.2413 84.0673 46.1085 86.0019 43.9539C86.0019 43.9539 87.1781 42.437 90.7837 42.437C94.3892 42.437 95.9501 43.3274 95.9501 43.3274V46.5592H95.6643C95.0927 43.7121 92.6194 42.7228 90.7837 42.7228C88.7281 42.7228 87.7388 44.7784 90.4979 46.5262L93.6967 48.5268C96.5767 50.2746 97.3132 53.8472 95.5654 55.9467V55.9247Z" fill="#3B3B42"/>
<path d="M113.989 55.3203C113.549 56.7163 111.9 57.6287 109.9 57.6287C109.9 57.6287 106.382 57.6287 106.096 54.7816C105.678 56.4305 104.063 57.6287 101.82 57.6287C100.611 57.6287 97.8628 57.09 97.8628 54.3969C97.8628 51.2311 100.435 50.6265 106.074 49.2964V47.2628C106.074 43.965 104.205 42.1953 102.018 43.3275C102.018 43.3275 101.325 43.7342 102.403 44.1189C102.941 44.3058 103.293 44.7565 103.546 45.3281C104.019 46.5043 103.48 47.7684 102.315 48.2741C101.172 48.7138 99.8744 48.1752 99.4017 47.0429C99.083 46.2185 99.2478 45.2731 99.7865 44.7015C100.171 44.2838 100.732 43.7232 101.908 43.0856C103.337 42.3272 104.887 42.4151 104.887 42.4151C109.042 42.4151 111.351 45.0093 111.351 48.7578V53.4845C111.351 53.4845 111.351 55.7709 112.868 55.705C112.868 55.705 113.659 55.705 113.813 55.1664L114 55.3203H113.989ZM106.063 49.6152C103.469 50.1868 103.491 52.1214 103.491 53.6054C103.491 53.6054 103.458 55.694 104.722 55.694C105.261 55.694 105.7 55.2543 106.052 54.4848V49.6042L106.063 49.6152Z" fill="#3B3B42"/>
</svg>
