<svg width="160" height="92" viewBox="0 0 160 92" fill="none" xmlns="http://www.w3.org/2000/svg">
<path d="M57.7875 58.5977C57.6075 58.8077 57.3975 58.9477 57.1575 59.0077C56.9175 59.0677 56.6775 59.0977 56.4575 59.0977C56.1975 59.0977 55.9275 59.0577 55.6475 58.9877C55.6175 58.8777 55.5975 58.7677 55.5675 58.6777C55.5375 58.5877 55.5175 58.4877 55.4875 58.3877C55.3475 57.9577 55.2375 57.5377 55.1575 57.1077C55.0775 56.6777 55.0375 56.2477 55.0375 55.7877C55.0375 55.5777 55.0275 55.3577 54.9975 55.1277C54.9675 54.8977 54.9575 54.6777 54.9375 54.4477C54.9075 54.0877 54.8975 53.7277 54.8875 53.3677C54.8875 53.0077 54.8675 52.6477 54.8575 52.2877C54.8275 51.6377 54.8075 50.9877 54.7875 50.3477C54.7675 49.6977 54.7575 49.0577 54.7575 48.4077C54.7575 47.8677 54.7575 47.3377 54.7775 46.8077C54.7875 46.2777 54.7975 45.7577 54.8175 45.2277C54.8175 45.1477 54.8175 45.0777 54.8175 44.9977C54.8175 44.9177 54.8175 44.8277 54.8175 44.7277H47.9775C47.9875 44.9577 47.9975 45.1777 48.0075 45.3977C48.0175 45.6177 48.0275 45.8377 48.0575 46.0677C48.0775 46.5077 48.1075 46.9477 48.1275 47.3977C48.1475 47.8477 48.1675 48.2977 48.1975 48.7277C48.2175 49.1677 48.2575 49.5977 48.2875 50.0377C48.3275 50.4677 48.3575 50.9077 48.3775 51.3477C48.4575 52.2277 48.5075 53.0977 48.5375 53.9677C48.5675 54.8377 48.5375 55.7077 48.4675 56.5877C48.4375 56.9877 48.3975 57.3877 48.3175 57.7777C48.2375 58.1677 48.1175 58.5577 47.9375 58.9377C47.8775 59.0777 47.7775 59.1877 47.6575 59.2877C47.5275 59.3777 47.3975 59.4177 47.2475 59.3877C47.1875 59.3777 47.1275 59.3477 47.0675 59.2977C47.0075 59.2477 46.9575 59.1977 46.9075 59.1477C46.5775 58.7877 46.3575 58.3877 46.2275 57.9677C46.0975 57.5377 46.0075 57.1077 45.9475 56.6477C45.8475 55.7077 45.7475 54.7777 45.6575 53.8677C45.5675 52.9577 45.4675 52.0277 45.3675 51.0877C45.1775 49.2677 45.0675 47.4277 45.0275 45.5777C45.0275 45.2477 45.0275 44.9277 45.0075 44.5877C44.9975 44.2577 44.9975 43.9277 45.0075 43.5977C45.0175 42.5877 45.0575 41.5577 45.1175 40.5177C45.1475 39.9577 45.1775 39.3977 45.2175 38.8577C45.2575 38.3177 45.2975 37.7677 45.3175 37.2177C45.3375 36.8877 45.3575 36.5677 45.3775 36.2477C45.3875 35.9277 45.4275 35.6077 45.4875 35.2777C45.5075 35.0977 45.5575 34.9477 45.6275 34.7977C45.6975 34.6577 45.7775 34.5177 45.8775 34.3777C45.8975 34.3377 45.9375 34.3077 45.9675 34.2977C46.0075 34.2777 46.0375 34.2677 46.0775 34.2477C46.2275 34.2477 46.3775 34.2477 46.5175 34.2577C46.6575 34.2577 46.7975 34.3177 46.9375 34.4177C46.9575 34.4477 46.9975 34.4577 47.0375 34.4677C47.0775 34.4677 47.1175 34.4877 47.1575 34.5177C47.2575 34.5677 47.3475 34.6477 47.4375 34.7477C47.5275 34.8577 47.5975 34.9777 47.6675 35.1077C47.7275 35.2377 47.7775 35.3777 47.8175 35.5177C47.8575 35.6577 47.8675 35.7877 47.8575 35.9077C47.8475 36.1077 47.8475 36.3077 47.8575 36.5077C47.8675 36.7077 47.8775 36.9177 47.8775 37.1277V38.4677C47.8775 38.9177 47.8775 39.3577 47.8975 39.8077C47.8975 40.4477 47.8975 41.0877 47.8975 41.7277C47.8975 42.3677 47.9175 43.0077 47.9275 43.6477C47.9275 43.6777 47.9275 43.6977 47.9275 43.7277C47.9275 43.7577 47.9275 43.7777 47.9275 43.8077C48.5075 43.7677 49.0775 43.7277 49.6475 43.6977C50.2175 43.6577 50.7875 43.6277 51.3475 43.6077C51.9275 43.5777 52.4975 43.5777 53.0675 43.5877C53.6375 43.5977 54.2275 43.6077 54.8275 43.6077C54.8375 43.4277 54.8475 43.2677 54.8675 43.1077C54.8775 42.9477 54.8875 42.7977 54.8875 42.6477C54.9075 41.9677 54.9375 41.3077 54.9575 40.6477C54.9775 39.9877 55.0075 39.3277 55.0375 38.6677C55.0575 38.1577 55.0975 37.6477 55.1375 37.1377C55.1775 36.6277 55.2575 36.1277 55.3675 35.6277C55.4175 35.4177 55.4875 35.2077 55.5675 34.9977C55.6475 34.7877 55.7375 34.5877 55.8375 34.3877C55.8975 34.2477 56.0275 34.1577 56.2175 34.1177C56.4075 34.0777 56.5675 34.0977 56.7075 34.1977C56.9075 34.3377 57.0775 34.4877 57.2075 34.6577C57.3375 34.8277 57.4275 35.0377 57.4775 35.2877C57.5875 35.9177 57.6675 36.5377 57.7075 37.1677C57.7475 37.7977 57.7875 38.4277 57.8275 39.0677C57.8475 39.4677 57.8775 39.8677 57.8975 40.2577C57.9175 40.6577 57.9275 41.0477 57.9475 41.4477C57.9675 41.8477 57.9875 42.2577 57.9875 42.6677C57.9875 43.0777 57.9875 43.4877 58.0075 43.8877C58.0275 44.3777 58.0475 44.8577 58.0675 45.3477C58.0775 45.8277 58.0875 46.3177 58.1075 46.8077C58.1275 47.3877 58.1575 47.9577 58.1775 48.5377C58.1975 49.1177 58.2175 49.6877 58.2475 50.2677C58.2675 50.7077 58.2975 51.1477 58.3175 51.5977C58.3375 52.0377 58.3575 52.4877 58.3875 52.9177C58.4075 53.6177 58.4175 54.3177 58.4175 55.0177C58.4175 55.7177 58.3775 56.4077 58.3175 57.1177C58.2875 57.4077 58.2375 57.6777 58.1575 57.9377C58.0775 58.1977 57.9475 58.4277 57.7675 58.6377L57.7875 58.5977Z" fill="#3B3B42"/>
<path d="M76.3479 58.5377C76.3479 58.6777 76.2779 58.7977 76.1279 58.9077C75.9879 59.0177 75.8479 59.0977 75.7279 59.1577C75.6279 59.2077 75.5279 59.2577 75.4379 59.3077C75.3479 59.3577 75.2479 59.3777 75.1479 59.3677C74.8579 59.3377 74.5679 59.3377 74.2879 59.3477C73.9979 59.3577 73.7279 59.2877 73.4579 59.1377C73.1779 58.9977 72.9479 58.8177 72.7479 58.5977C72.5479 58.3777 72.3779 58.1277 72.2379 57.8377C72.0079 57.3977 71.8279 56.9577 71.6779 56.5077C71.5279 56.0577 71.3979 55.5977 71.2979 55.1177C71.1879 54.5577 71.0479 54.0077 70.8979 53.4677C70.7379 52.9277 70.5879 52.3877 70.4379 51.8377C70.2779 51.2477 70.1379 50.6577 70.0179 50.0577C69.8979 49.4577 69.7779 48.8677 69.6479 48.2677C69.6479 48.2377 69.6479 48.2177 69.6479 48.1977C69.6479 48.1777 69.6479 48.1577 69.6479 48.1277C69.6179 47.9877 69.5979 47.8877 69.5679 47.8077C69.5379 47.7277 69.5079 47.6777 69.4679 47.6377C69.4279 47.5977 69.3679 47.5777 69.2879 47.5677C69.2079 47.5677 69.1079 47.5677 68.9679 47.5677C67.7879 47.5677 66.6079 47.5077 65.4379 47.3977C65.3779 47.3877 65.3079 47.3777 65.2279 47.3977C65.1479 47.3977 65.0579 47.3977 64.9479 47.3977C64.7879 47.4077 64.6679 47.4177 64.5879 47.3977C64.5079 47.3977 64.4579 47.3977 64.4079 47.4277C64.3679 47.4577 64.3279 47.5077 64.2879 47.5977C64.2479 47.6877 64.1979 47.8277 64.1179 48.0277C63.7079 49.0377 63.2879 50.0577 62.8679 51.0577C62.4479 52.0677 62.0279 53.0777 61.6179 54.0877C61.4679 54.4477 61.3379 54.8177 61.2179 55.1877C61.0979 55.5577 60.9679 55.9277 60.8279 56.3077C60.7679 56.5077 60.6779 56.6877 60.5779 56.8477C60.4679 57.0077 60.3279 57.1577 60.1579 57.2977C60.0879 57.3577 60.0079 57.4177 59.9279 57.4577C59.8479 57.4977 59.7579 57.4877 59.6579 57.4277C59.5579 57.3677 59.4979 57.2877 59.4779 57.1977C59.4579 57.1077 59.4579 57.0077 59.4779 56.9077C59.6179 56.3677 59.7479 55.8377 59.8779 55.2977C60.0079 54.7677 60.1679 54.2377 60.3379 53.7077C60.7779 52.3377 61.2579 50.9977 61.7979 49.6777C62.3279 48.3577 62.8379 47.0077 63.3079 45.6477C63.5679 44.8677 63.8579 44.1177 64.1679 43.3877C64.4779 42.6577 64.7879 41.9177 65.0979 41.1577C65.4079 40.4177 65.7179 39.6877 66.0179 38.9577C66.3179 38.2277 66.6179 37.5077 66.9179 36.7777L67.4079 35.4577C67.4579 35.3577 67.4979 35.2677 67.5179 35.1777C67.5379 35.0877 67.6079 35.0177 67.7079 34.9477C67.8879 34.8477 68.0379 34.7377 68.1879 34.6277C68.3379 34.5177 68.4779 34.3977 68.6279 34.2877C68.7579 34.1977 68.9079 34.1277 69.0779 34.0577C69.3079 34.0077 69.5179 33.9877 69.7379 34.0077C69.9479 34.0277 70.0779 34.1477 70.1179 34.3777C70.3079 34.9277 70.5179 35.5977 70.7579 36.3677C70.9679 37.0277 71.2179 37.8477 71.4879 38.8277C71.7679 39.8077 72.0779 40.9477 72.4479 42.2677C72.6279 43.1577 72.8079 44.0377 72.9979 44.9077C73.1879 45.7777 73.4079 46.6477 73.6579 47.5077C73.8079 48.0377 73.9379 48.5677 74.0479 49.1077C74.1579 49.6477 74.2779 50.1877 74.4079 50.7277C74.7679 52.0777 75.1079 53.3077 75.4079 54.4077C75.5379 54.8877 75.6579 55.3477 75.7779 55.8077C75.8979 56.2677 76.0079 56.6777 76.0979 57.0577C76.1879 57.4377 76.2679 57.7477 76.3179 58.0177C76.3679 58.2777 76.3879 58.4477 76.3879 58.5077L76.3479 58.5377ZM68.1779 38.2877C67.8779 38.9377 67.5779 39.5677 67.2979 40.1777C67.0179 40.7877 66.7279 41.3877 66.4479 41.9877C65.8679 43.2077 65.3679 44.4177 64.9479 45.6377C64.9179 45.7077 64.8979 45.7877 64.8679 45.8577C64.8379 45.9277 64.8379 46.0077 64.8679 46.1077C65.1579 46.0777 65.4379 46.0577 65.7179 46.0277C65.9979 45.9977 66.2679 45.9877 66.5479 45.9877C66.9079 45.9777 67.2779 45.9677 67.6379 45.9877C67.9979 45.9877 68.3679 45.9877 68.7279 45.9877C68.9579 45.9877 69.0879 45.9677 69.1179 45.9177C69.1579 45.8777 69.1579 45.7477 69.1379 45.5277C69.0279 44.6277 68.9079 43.7277 68.7979 42.8277C68.6879 41.9277 68.5679 41.0377 68.4579 40.1277C68.4179 39.8377 68.3879 39.5377 68.3479 39.2377C68.3079 38.9277 68.2579 38.6077 68.1779 38.2677V38.2877Z" fill="#3B3B42"/>
<path d="M79.5878 41.6275C79.6078 41.5675 79.6378 41.5075 79.6678 41.4675C79.6878 41.4275 79.7178 41.3775 79.7478 41.3275C79.9578 40.7675 80.1978 40.2275 80.4678 39.7175C80.7378 39.2075 81.0178 38.6975 81.3078 38.1875C81.9578 37.0075 82.7978 35.9775 83.8278 35.0875C84.2678 34.6975 84.7478 34.4075 85.2778 34.2075C85.6778 34.0475 86.0678 34.0375 86.4478 34.2075C86.8278 34.3675 87.1178 34.6275 87.3278 34.9875C87.5278 35.3475 87.6678 35.7175 87.7478 36.0975C87.8278 36.4775 87.8878 36.8575 87.9278 37.2675C87.9778 37.7275 87.9678 38.1775 87.8978 38.6075C87.8278 39.0375 87.7178 39.4775 87.5678 39.9175C87.5378 39.9775 87.5078 40.0475 87.4778 40.1075C87.4378 40.1675 87.3978 40.2375 87.3678 40.2975C87.0378 40.8775 86.6678 41.3975 86.2278 41.8675C85.7978 42.3375 85.3178 42.7775 84.8078 43.1775C84.3478 43.5375 83.8578 43.8675 83.3578 44.1575C82.8578 44.4475 82.3278 44.6775 81.7578 44.8575C81.4778 44.9475 81.2078 45.0275 80.9278 45.1075C80.6478 45.1875 80.3678 45.2775 80.0778 45.3575C80.0678 45.3675 80.0178 45.3975 79.9478 45.4475C79.9578 45.5875 79.9678 45.7275 79.9878 45.8575C79.9978 45.9975 80.0178 46.1375 80.0278 46.2675C80.0478 46.5675 80.0778 46.8675 80.1078 47.1775C80.1278 47.4875 80.1678 47.7875 80.2178 48.0875C80.2778 48.6275 80.3578 49.1575 80.4578 49.6875C80.5478 50.2175 80.6278 50.7475 80.6878 51.2875C80.7678 51.8175 80.8278 52.3475 80.8778 52.8775C80.9278 53.4075 80.9878 53.9475 81.0478 54.4875C81.0678 54.8175 81.0978 55.1375 81.1178 55.4675C81.1378 55.7975 81.1478 56.1175 81.1478 56.4475C81.1478 56.6575 81.1478 56.8775 81.1278 57.0975C81.1178 57.3175 81.0878 57.5375 81.0378 57.7475C80.9878 57.9375 80.9178 58.1175 80.8378 58.2975C80.7578 58.4775 80.6778 58.6675 80.6078 58.8475C80.5778 58.9075 80.5578 58.9675 80.5278 59.0275C80.4978 59.0875 80.4678 59.1475 80.4478 59.2075C80.3678 59.3675 80.2578 59.4175 80.1078 59.3575C79.9678 59.2975 79.8378 59.2275 79.7178 59.1475C79.5978 59.0675 79.4978 58.9575 79.4078 58.8075C79.1978 58.4275 79.0378 58.0375 78.9278 57.6375C78.8178 57.2275 78.7478 56.8075 78.7078 56.3675C78.6778 56.0875 78.6378 55.8275 78.5778 55.5575C78.5178 55.2975 78.4678 55.0275 78.4278 54.7475C78.3678 54.3475 78.3078 53.9475 78.2678 53.5375C78.2278 53.1275 78.1678 52.7175 78.1078 52.3075L77.9978 51.5175C77.9478 51.1175 77.8978 50.7075 77.8478 50.3075C77.7978 49.8975 77.7578 49.4975 77.7178 49.0975C77.6678 48.6875 77.6278 48.2675 77.5978 47.8575C77.5678 47.4475 77.5378 47.0275 77.5178 46.6175C77.4578 45.9375 77.4078 45.2675 77.3678 44.5975C77.3278 43.9275 77.2878 43.2575 77.2378 42.5775C77.1978 41.9775 77.1578 41.3675 77.1278 40.7675C77.0878 40.1575 77.0578 39.5575 77.0378 38.9575C77.0078 38.7275 77.0078 38.5075 77.0078 38.2675C77.0078 38.0375 77.0278 37.8075 77.0378 37.5775C77.0478 37.4775 77.0678 37.3675 77.1078 37.2575C77.1378 37.1475 77.1778 37.0375 77.2078 36.9375C77.2578 36.7875 77.3878 36.7075 77.5878 36.7075C78.1378 36.7175 78.5278 36.9875 78.7578 37.4975C78.8478 37.7375 78.9178 37.9875 78.9878 38.2675C79.0478 38.5775 79.1178 38.8875 79.1778 39.1975C79.2378 39.5075 79.2978 39.8175 79.3678 40.1275C79.4078 40.3375 79.4378 40.5575 79.4678 40.7675C79.4978 40.9775 79.5378 41.1975 79.5678 41.4075C79.5778 41.4575 79.6078 41.5375 79.6478 41.6475L79.5878 41.6275ZM79.8278 44.0375C80.0678 43.9375 80.2878 43.8375 80.4978 43.7475C80.7078 43.6575 80.9078 43.5475 81.1078 43.4375C81.4678 43.2375 81.8278 43.0375 82.1778 42.8275C82.5278 42.6175 82.8778 42.4075 83.2278 42.1975C83.4078 42.0975 83.5678 41.9875 83.7078 41.8575C83.8478 41.7375 83.9978 41.5975 84.1478 41.4675C84.3778 41.2675 84.5778 41.0575 84.7478 40.8275C84.9278 40.5975 85.0978 40.3675 85.2778 40.1175C85.4178 39.9075 85.5378 39.6875 85.6478 39.4775C85.7578 39.2675 85.8478 39.0375 85.9178 38.7975C86.0478 38.4375 86.1278 38.0575 86.1578 37.6775C86.1978 37.2975 86.2178 36.9075 86.2378 36.5175C86.2378 36.4175 86.2378 36.3175 86.2178 36.2275C86.2078 36.1375 86.1878 36.0375 86.1578 35.9375C86.1178 35.7275 85.9878 35.5875 85.7678 35.5275C85.6378 35.5075 85.5278 35.5075 85.4278 35.5275C85.3278 35.5575 85.2278 35.5975 85.1278 35.6475C84.7978 35.8575 84.4978 36.0875 84.2278 36.3275C83.8878 36.6175 83.5778 36.9275 83.2878 37.2775C82.9978 37.6175 82.7278 37.9775 82.4778 38.3375C82.3678 38.4975 82.2478 38.6675 82.1378 38.8275C82.0278 38.9875 81.9078 39.1575 81.7978 39.3375C81.4078 39.9375 81.0578 40.5575 80.7578 41.1975C80.4478 41.8375 80.1578 42.4775 79.8678 43.1375C79.8078 43.2775 79.7778 43.4175 79.7778 43.5575C79.7778 43.6975 79.7978 43.8575 79.8378 44.0375H79.8278Z" fill="#3B3B42"/>
<path d="M91.2475 41.6275C91.2675 41.5675 91.2975 41.5075 91.3275 41.4675C91.3475 41.4275 91.3775 41.3775 91.4075 41.3275C91.6175 40.7675 91.8575 40.2275 92.1275 39.7175C92.3975 39.2075 92.6775 38.6975 92.9675 38.1875C93.6175 37.0075 94.4575 35.9775 95.4875 35.0875C95.9275 34.6975 96.4075 34.4075 96.9375 34.2075C97.3375 34.0475 97.7275 34.0375 98.1075 34.2075C98.4875 34.3675 98.7775 34.6275 98.9875 34.9875C99.1875 35.3475 99.3275 35.7175 99.4075 36.0975C99.4875 36.4775 99.5475 36.8575 99.5875 37.2675C99.6375 37.7275 99.6275 38.1775 99.5575 38.6075C99.4875 39.0375 99.3775 39.4775 99.2275 39.9175C99.1975 39.9775 99.1675 40.0475 99.1375 40.1075C99.0975 40.1675 99.0575 40.2375 99.0275 40.2975C98.6975 40.8775 98.3275 41.3975 97.8875 41.8675C97.4575 42.3375 96.9775 42.7775 96.4675 43.1775C96.0075 43.5375 95.5175 43.8675 95.0175 44.1575C94.5175 44.4475 93.9875 44.6775 93.4175 44.8575C93.1375 44.9475 92.8675 45.0275 92.5875 45.1075C92.3075 45.1875 92.0275 45.2775 91.7375 45.3575C91.7275 45.3675 91.6775 45.3975 91.6075 45.4475C91.6175 45.5875 91.6275 45.7275 91.6475 45.8575C91.6575 45.9975 91.6775 46.1375 91.6875 46.2675C91.7075 46.5675 91.7375 46.8675 91.7675 47.1775C91.7875 47.4875 91.8275 47.7875 91.8775 48.0875C91.9375 48.6275 92.0175 49.1575 92.1175 49.6875C92.2075 50.2175 92.2875 50.7475 92.3475 51.2875C92.4275 51.8175 92.4875 52.3475 92.5375 52.8775C92.5875 53.4075 92.6475 53.9475 92.7075 54.4875C92.7275 54.8175 92.7575 55.1375 92.7775 55.4675C92.7975 55.7975 92.8075 56.1175 92.8075 56.4475C92.8075 56.6575 92.8075 56.8775 92.7875 57.0975C92.7775 57.3175 92.7475 57.5375 92.6975 57.7475C92.6475 57.9375 92.5775 58.1175 92.4975 58.2975C92.4175 58.4775 92.3375 58.6675 92.2675 58.8475C92.2375 58.9075 92.2175 58.9675 92.1875 59.0275C92.1575 59.0875 92.1275 59.1475 92.1075 59.2075C92.0275 59.3675 91.9175 59.4175 91.7675 59.3575C91.6275 59.2975 91.4975 59.2275 91.3775 59.1475C91.2575 59.0675 91.1575 58.9575 91.0675 58.8075C90.8575 58.4275 90.6975 58.0375 90.5875 57.6375C90.4775 57.2275 90.4075 56.8075 90.3675 56.3675C90.3375 56.0875 90.2975 55.8275 90.2375 55.5575C90.1775 55.2975 90.1275 55.0275 90.0875 54.7475C90.0275 54.3475 89.9675 53.9475 89.9275 53.5375C89.8875 53.1275 89.8275 52.7175 89.7675 52.3075L89.6575 51.5175C89.6075 51.1175 89.5575 50.7075 89.5075 50.3075C89.4575 49.8975 89.4175 49.4975 89.3775 49.0975C89.3275 48.6875 89.2875 48.2675 89.2575 47.8575C89.2275 47.4475 89.1975 47.0275 89.1775 46.6175C89.1175 45.9375 89.0675 45.2675 89.0275 44.5975C88.9875 43.9275 88.9475 43.2575 88.8975 42.5775C88.8575 41.9775 88.8175 41.3675 88.7875 40.7675C88.7475 40.1575 88.7175 39.5575 88.6975 38.9575C88.6675 38.7275 88.6675 38.5075 88.6675 38.2675C88.6675 38.0375 88.6875 37.8075 88.6975 37.5775C88.7075 37.4775 88.7275 37.3675 88.7675 37.2575C88.7975 37.1475 88.8375 37.0375 88.8675 36.9375C88.9175 36.7875 89.0475 36.7075 89.2475 36.7075C89.7975 36.7175 90.1875 36.9875 90.4175 37.4975C90.5075 37.7375 90.5775 37.9875 90.6475 38.2675C90.7075 38.5775 90.7775 38.8875 90.8375 39.1975C90.8975 39.5075 90.9575 39.8175 91.0275 40.1275C91.0675 40.3375 91.0975 40.5575 91.1275 40.7675C91.1575 40.9775 91.1975 41.1975 91.2275 41.4075C91.2375 41.4575 91.2675 41.5375 91.3075 41.6475L91.2475 41.6275ZM91.4875 44.0375C91.7275 43.9375 91.9475 43.8375 92.1575 43.7475C92.3675 43.6575 92.5675 43.5475 92.7675 43.4375C93.1275 43.2375 93.4875 43.0375 93.8375 42.8275C94.1875 42.6175 94.5375 42.4075 94.8875 42.1975C95.0675 42.0975 95.2275 41.9875 95.3675 41.8575C95.5075 41.7375 95.6575 41.5975 95.8075 41.4675C96.0375 41.2675 96.2375 41.0575 96.4075 40.8275C96.5875 40.5975 96.7575 40.3675 96.9375 40.1175C97.0775 39.9075 97.1975 39.6875 97.3075 39.4775C97.4175 39.2675 97.5075 39.0375 97.5775 38.7975C97.7075 38.4375 97.7875 38.0575 97.8175 37.6775C97.8575 37.2975 97.8775 36.9075 97.8875 36.5175C97.8875 36.4175 97.8875 36.3175 97.8675 36.2275C97.8575 36.1375 97.8375 36.0375 97.8075 35.9375C97.7675 35.7275 97.6375 35.5875 97.4175 35.5275C97.2875 35.5075 97.1775 35.5075 97.0775 35.5275C96.9775 35.5575 96.8775 35.5975 96.7775 35.6475C96.4475 35.8575 96.1475 36.0875 95.8775 36.3275C95.5375 36.6175 95.2275 36.9275 94.9375 37.2775C94.6475 37.6175 94.3775 37.9775 94.1275 38.3375C94.0175 38.4975 93.8975 38.6675 93.7875 38.8275C93.6775 38.9875 93.5575 39.1575 93.4475 39.3375C93.0575 39.9375 92.7075 40.5575 92.4075 41.1975C92.0975 41.8375 91.8075 42.4775 91.5175 43.1375C91.4575 43.2775 91.4275 43.4175 91.4275 43.5575C91.4275 43.6975 91.4475 43.8575 91.4875 44.0375V44.0375Z" fill="#3B3B42"/>
<path d="M110.547 44.0376L110.317 44.5476C110.127 45.0376 109.937 45.5176 109.757 46.0076C109.567 46.4876 109.377 46.9676 109.197 47.4476C108.947 48.1276 108.567 48.7476 108.047 49.3076C107.837 49.5476 107.587 49.7176 107.317 49.8376C107.037 49.9476 106.757 50.0276 106.457 50.0776C106.397 50.1076 106.327 50.1176 106.247 50.1176C106.167 50.1176 106.107 50.1176 106.037 50.1376C105.557 50.1976 105.147 50.1376 104.787 49.9476C104.427 49.7576 104.097 49.4976 103.797 49.1776C103.537 48.8876 103.317 48.5776 103.157 48.2476C102.997 47.9176 102.857 47.5576 102.747 47.1876C102.647 46.8876 102.577 46.5876 102.537 46.2776C102.497 45.9676 102.457 45.6576 102.427 45.3276C102.347 44.6976 102.337 44.0876 102.377 43.4876C102.417 42.8876 102.457 42.2776 102.497 41.6676C102.537 41.2176 102.587 40.7676 102.647 40.3176C102.707 39.8676 102.787 39.4176 102.877 38.9876C102.927 38.7376 102.997 38.4976 103.087 38.2576C103.177 38.0176 103.277 37.7776 103.387 37.5476C103.437 37.4676 103.467 37.4176 103.477 37.3776C103.497 37.2776 103.537 37.1876 103.587 37.1176C103.637 37.0376 103.717 37.0076 103.827 37.0076C103.967 36.9976 104.087 37.0076 104.207 37.0276C104.317 37.0576 104.427 37.1176 104.527 37.2176C104.677 37.3776 104.797 37.5476 104.887 37.7176C104.977 37.8876 105.007 38.0876 104.977 38.3076C104.977 38.4076 104.977 38.4876 104.997 38.5376C105.097 39.0776 105.157 39.6176 105.167 40.1576C105.177 40.6976 105.187 41.2376 105.207 41.7776C105.217 42.6176 105.247 43.4476 105.297 44.2676C105.347 45.0876 105.457 45.9076 105.637 46.7376C105.697 46.9976 105.777 47.2576 105.867 47.5076C105.957 47.7576 106.077 47.9876 106.227 48.1976C106.287 48.2776 106.357 48.3476 106.427 48.4176C106.497 48.4876 106.567 48.5676 106.647 48.6476C106.807 48.5076 106.957 48.3776 107.097 48.2476C107.237 48.1176 107.347 47.9676 107.437 47.7876C107.597 47.4576 107.757 47.1376 107.907 46.8076C108.057 46.4776 108.197 46.1476 108.317 45.8076C108.527 45.2576 108.727 44.7076 108.907 44.1676C109.087 43.6276 109.277 43.0876 109.477 42.5376C109.977 41.2176 110.557 39.9176 111.227 38.6276C111.317 38.4476 111.387 38.2676 111.437 38.0876C111.487 37.8976 111.527 37.7076 111.567 37.5276C111.697 36.9976 111.847 36.4976 112.037 36.0076C112.227 35.5176 112.437 35.0376 112.677 34.5576C112.727 34.4576 112.787 34.3876 112.857 34.3376C112.927 34.2976 113.007 34.2576 113.107 34.2376C113.257 34.1976 113.407 34.1676 113.547 34.1476C113.687 34.1276 113.847 34.1376 114.007 34.1876C114.187 34.2476 114.317 34.3376 114.417 34.4476C114.517 34.5576 114.597 34.6876 114.657 34.8376C114.787 35.1176 114.847 35.3876 114.867 35.6676C114.877 35.9476 114.867 36.2276 114.847 36.5176C114.777 37.3576 114.697 38.1876 114.617 39.0176C114.537 39.8476 114.477 40.6776 114.407 41.5176C114.357 42.2076 114.287 42.8976 114.207 43.5876C114.127 44.2776 114.037 44.9576 113.937 45.6376C113.897 45.9176 113.857 46.1776 113.817 46.4476C113.777 46.7076 113.727 46.9776 113.677 47.2576C113.647 47.4576 113.627 47.6576 113.607 47.8576C113.577 48.0576 113.557 48.2576 113.527 48.4576C113.437 48.9976 113.357 49.5276 113.277 50.0676C113.197 50.5976 113.107 51.1376 113.007 51.6776C112.947 52.0176 112.877 52.3576 112.797 52.6876C112.717 53.0276 112.647 53.3676 112.567 53.7176C112.387 54.4676 112.127 55.1576 111.777 55.7876C111.427 56.4176 110.967 56.9876 110.387 57.4976C109.607 58.1776 108.747 58.6876 107.797 59.0376C107.487 59.1476 107.167 59.2476 106.857 59.3176C106.547 59.3976 106.217 59.4376 105.877 59.4476C105.377 59.4776 104.897 59.4376 104.427 59.3376C103.967 59.2376 103.517 59.0476 103.097 58.7576C103.037 58.7176 102.967 58.6876 102.887 58.6576C102.807 58.6276 102.747 58.5876 102.677 58.5576C102.427 58.4076 102.197 58.2376 101.977 58.0476C101.767 57.8576 101.577 57.6376 101.417 57.3876C101.127 56.9876 100.887 56.5676 100.687 56.1376C100.487 55.7076 100.367 55.2476 100.327 54.7576C100.297 54.4976 100.287 54.2376 100.277 53.9776C100.277 53.7176 100.297 53.4676 100.357 53.2176C100.417 52.9076 100.527 52.6076 100.687 52.3376C100.847 52.0576 101.087 51.8476 101.407 51.6976C101.547 51.6376 101.677 51.6476 101.797 51.7376C102.047 51.9276 102.177 52.1676 102.187 52.4676C102.187 52.8676 102.257 53.2476 102.387 53.5976C102.517 53.9476 102.667 54.2876 102.847 54.6076C103.047 54.9876 103.307 55.2876 103.637 55.5176C103.967 55.7476 104.317 55.9076 104.687 55.9976C105.067 56.0876 105.447 56.0976 105.857 56.0476C106.257 55.9876 106.627 55.8576 106.967 55.6476C107.767 55.1476 108.347 54.4676 108.717 53.5976C108.817 53.3976 108.897 53.1876 108.947 52.9676C108.997 52.7476 109.047 52.5276 109.097 52.3176C109.207 51.8376 109.317 51.3676 109.407 50.8876C109.497 50.4076 109.597 49.9376 109.697 49.4576C109.807 48.8276 109.917 48.2076 110.017 47.5976C110.117 46.9876 110.227 46.3576 110.337 45.7176L110.567 44.4176C110.577 44.3576 110.587 44.2976 110.597 44.2476C110.597 44.1976 110.617 44.1476 110.627 44.0976H110.537L110.547 44.0376Z" fill="#3B3B42"/>
</svg>
