<svg width="160" height="92" viewBox="0 0 160 92" fill="none" xmlns="http://www.w3.org/2000/svg">
<path d="M31.81 40.12V42.43C32.8 40.78 34.39 39.95 36.57 39.95C38.37 39.95 39.83 40.55 40.95 41.75C42.07 42.95 42.63 44.58 42.63 46.65V55.83H37.84V47.3C37.84 46.29 37.57 45.5 37.04 44.95C36.51 44.4 35.77 44.12 34.83 44.12C33.89 44.12 33.15 44.4 32.62 44.95C32.09 45.5 31.82 46.29 31.82 47.3V55.83H27V40.12H31.81Z" fill="#3B3B42"/>
<path d="M47.36 53.78C45.97 52.28 45.28 50.35 45.28 48.01C45.28 45.67 45.97 43.74 47.36 42.22C48.75 40.71 50.44 39.95 52.44 39.95C54.44 39.95 55.97 40.69 57.04 42.17V40.11H61.85V55.82H57.04V53.54C55.88 55.19 54.32 56.02 52.37 56.02C50.42 56.02 48.75 55.27 47.36 53.77V53.78ZM56 50.85C56.69 50.17 57.04 49.22 57.04 47.98C57.04 46.74 56.69 45.79 56 45.12C55.31 44.45 54.51 44.12 53.61 44.12C52.71 44.12 51.91 44.46 51.22 45.13C50.53 45.81 50.18 46.76 50.18 48C50.18 49.24 50.53 50.19 51.22 50.86C51.91 51.53 52.71 51.86 53.61 51.86C54.51 51.86 55.31 51.52 56 50.85V50.85Z" fill="#3B3B42"/>
<path d="M72.47 51.75H74.19V55.83H71.74C69.97 55.83 68.61 55.44 67.64 54.66C66.67 53.88 66.19 52.54 66.19 50.65V44.12H64.73V40.12H66.19V36.3H71V40.13H74.15V44.13H71V50.66C71 51.39 71.49 51.76 72.46 51.76L72.47 51.75Z" fill="#3B3B42"/>
<path d="M87.87 40.1201H92.68V55.8301H87.87V53.5201C86.87 55.1701 85.2901 56.0001 83.1101 56.0001C81.3101 56.0001 79.85 55.4001 78.73 54.2001C77.61 53.0001 77.05 51.3701 77.05 49.3001V40.1201H81.84V48.6501C81.84 49.6601 82.11 50.4501 82.64 51.0001C83.17 51.5501 83.91 51.8301 84.85 51.8301C85.79 51.8301 86.5301 51.5501 87.0601 51.0001C87.6001 50.4501 87.8601 49.6601 87.8601 48.6501V40.1201H87.87Z" fill="#3B3B42"/>
<path d="M101.44 40.12V43.05C102.57 40.99 104.07 39.95 105.95 39.95V44.85H104.77C103.66 44.85 102.83 45.11 102.28 45.64C101.73 46.17 101.45 47.09 101.45 48.4V55.83H96.6401V40.12H101.45H101.44Z" fill="#3B3B42"/>
<path d="M109.21 53.78C107.82 52.28 107.13 50.35 107.13 48.01C107.13 45.67 107.82 43.74 109.21 42.22C110.6 40.71 112.29 39.95 114.29 39.95C116.29 39.95 117.82 40.69 118.89 42.17V40.11H123.7V55.82H118.89V53.54C117.73 55.19 116.17 56.02 114.22 56.02C112.27 56.02 110.6 55.27 109.21 53.77V53.78ZM117.85 50.85C118.54 50.17 118.89 49.22 118.89 47.98C118.89 46.74 118.54 45.79 117.85 45.12C117.16 44.45 116.36 44.12 115.46 44.12C114.56 44.12 113.76 44.46 113.07 45.13C112.38 45.81 112.03 46.76 112.03 48C112.03 49.24 112.38 50.19 113.07 50.86C113.76 51.53 114.56 51.86 115.46 51.86C116.36 51.86 117.16 51.52 117.85 50.85V50.85Z" fill="#3B3B42"/>
<path d="M127.65 55.83V35H132.46V55.83H127.65Z" fill="#3B3B42"/>
</svg>
