<svg width="160" height="92" viewBox="0 0 160 92" fill="none" xmlns="http://www.w3.org/2000/svg">
<g clip-path="url(#clip0_516_6)">
<path d="M40.7899 45.98C40.9599 46.09 41.1299 46.2 41.2899 46.26C42.5799 46.93 43.5799 47.83 44.6499 48.72C46.1599 50.06 47.2199 51.8 47.7799 53.92C48.1199 55.37 47.8899 57 46.9399 58.68C46.6599 59.24 46.3199 59.86 45.8799 60.36C45.7099 60.58 45.4299 60.92 45.1499 61.14C44.0899 62.15 42.9099 62.82 41.6299 63.32C41.0099 63.66 40.3399 63.71 39.7299 63.66C39.2299 63.66 38.7799 63.72 38.2799 64C37.8299 64.22 37.4399 64.34 36.9399 64.5C35.7699 64.78 34.7599 64.84 33.7499 64.67C32.2399 64.45 30.7799 64 29.8299 62.99C28.9899 62.09 28.7699 60.92 29.2699 59.35C29.6599 58.4 30.1699 57.45 30.8899 56.5C31.5099 55.61 32.2299 54.71 33.1299 53.93C33.2999 53.82 33.4099 53.59 33.5199 53.43C33.9699 52.59 34.1899 52.42 35.0299 52.54C35.3699 52.43 35.5899 51.92 36.0399 52.09C35.8199 52.2 35.6499 52.31 35.3099 52.48C35.5899 52.54 35.7599 52.59 35.8699 52.59C35.8699 52.87 35.8699 53.09 35.9299 53.37C35.9899 53.54 35.9299 53.71 35.7599 53.93C35.4199 54.38 35.1399 54.83 34.7499 55.33C34.1899 56.06 33.7999 56.73 33.6899 57.57C33.5799 58.07 33.5799 58.52 33.5199 59.08C33.4599 59.47 33.6299 59.75 34.0199 59.86C34.4699 60.03 35.0299 60.08 35.5899 59.97C36.5999 59.8 37.6599 59.58 38.6699 59.13C39.6799 58.68 40.7399 58.29 41.7499 57.79C42.4799 57.45 43.2599 57.01 43.9299 56.39C44.4299 56 44.5999 55.55 44.4299 55.21C44.0399 53.92 43.5299 52.8 42.4699 51.97C40.7399 50.57 38.7199 49.34 36.7099 48.17C35.4799 47.44 34.3599 46.66 33.2999 45.76C32.0699 44.81 31.1699 43.58 30.4999 42.29C29.2099 40.16 30.3899 37.25 32.1799 35.07C33.7999 33.06 35.9799 31.71 38.2199 30.48C38.8899 30.2 39.5599 30.03 40.1799 29.75C43.5899 28.52 46.7799 28.41 49.8599 28.63C50.8099 28.74 51.7099 28.91 52.6599 29.02C53.6699 29.13 54.6199 29.36 55.3499 29.92C55.6299 30.14 55.7999 30.37 55.6299 30.81C55.5699 30.92 55.5699 31.09 55.5699 31.2C55.5099 31.48 55.5099 31.76 55.3999 32.04C54.9499 32.99 54.6199 33.94 54.5599 34.89C54.4999 35.28 54.2199 35.84 53.9399 36.29C53.7199 36.74 53.3799 37.07 53.1599 37.47C52.9399 37.86 52.6599 38.14 52.2599 38.37C51.6399 38.65 51.1399 38.93 50.5299 39.1C50.1899 39.27 49.8599 39.27 49.6299 39.1C48.7899 38.76 47.8999 38.6 46.9999 38.48C45.2099 38.26 43.4199 37.98 41.4599 38.03C40.8999 38.09 40.2899 38.14 39.7299 38.31C39.0599 38.42 38.4399 38.59 37.8299 38.7C33.7999 39.71 36.1499 42.62 38.1699 44.07C39.0699 44.63 39.9599 45.3 40.7999 45.97L40.7899 45.98Z" fill="#3B3B42"/>
<path d="M60.65 52.41C60.59 52.35 60.43 52.35 60.37 52.52C60.31 52.52 60.31 52.58 60.31 52.63C60.09 53.19 59.81 53.53 59.3 53.41C59.02 53.69 58.91 53.97 58.68 54.19C58.46 54.3 58.18 54.53 58.12 54.92C58.12 55.03 58.06 55.09 58.01 55.2C57.73 55.59 57.45 55.87 57.23 56.21C57.01 56.77 56.61 57.11 56.22 57.44C56.05 57.66 55.77 57.83 55.6 58.22C55.6 58.28 55.49 58.44 55.32 58.44C55.04 58.5 54.76 58.72 54.48 58.94C53.86 59.28 53.25 59.56 52.58 59.61C51.96 59.61 51.41 59.55 50.85 59.27C49.96 58.77 49.62 57.82 49.51 56.59C49.51 56.31 49.51 56.03 49.62 55.75C49.73 54.02 50.07 52.28 50.52 50.55C50.8 49.6 51.14 48.76 51.47 47.92C52.2 46.41 52.81 44.79 53.54 43.28C53.54 43.11 53.6 43.06 53.65 42.89C53.99 41.6 54.66 40.37 55.33 39.2C55.55 38.86 55.67 38.53 55.89 38.08C56.17 38.02 56.45 38.02 56.67 38.25C57.29 38.64 57.9 39.09 58.57 39.48C58.68 39.54 58.85 39.65 58.85 39.76C59.24 40.6 59.75 41.38 59.97 42.33C60.08 42.89 60.14 43.39 60.25 43.95C60.36 44.57 60.31 45.24 60.03 45.8C59.81 46.25 59.69 46.75 59.47 47.2C59.41 47.48 59.3 47.76 59.25 48.04C58.91 49.16 58.58 50.28 58.08 51.4C58.08 51.4 58.02 51.46 58.02 51.51C58.02 51.51 58.02 51.57 57.91 51.68C57.85 52.07 57.74 52.52 57.52 52.97C57.63 52.91 57.74 52.91 57.8 52.86C58.36 52.24 58.97 51.52 59.53 50.85C60.54 49.73 61.43 48.61 62.38 47.49C62.77 47.04 63.11 46.71 63.44 46.2C64.5 44.75 65.68 43.46 66.85 42.17C67.07 41.95 67.3 41.78 67.47 41.72C67.97 41.5 68.48 41.44 68.87 41.5C69.09 41.61 69.26 41.67 69.37 41.78C69.82 42.23 70.21 42.73 70.66 43.12C70.94 43.34 71.11 43.68 71.28 44.13C71.39 44.52 71.5 44.86 71.56 45.31C71.67 45.87 71.67 46.43 71.5 47.04C71.11 48.33 70.77 49.5 70.27 50.68C70.16 51.18 69.93 51.69 69.82 52.3C69.99 52.24 70.16 52.13 70.21 52.08C71.33 51.46 72.34 50.57 73.29 49.56C74.19 48.72 75.14 47.94 76.14 47.38C76.31 47.32 76.42 47.21 76.59 47.04C76.93 46.76 77.21 46.82 77.43 47.04C77.71 47.26 77.82 47.66 78.21 47.82C78.49 47.93 78.66 48.21 78.88 48.49C78.82 48.99 78.82 49.44 78.88 49.89C78.88 50.28 78.77 50.67 78.6 51.12C78.26 51.29 78.49 51.74 78.26 52.02C78.2 52.69 78.09 53.36 77.98 53.98C77.92 54.6 77.92 55.15 77.98 55.77C77.98 56.16 78.09 56.33 78.37 56.44C79.21 56.61 82.12 54.54 82.68 53.81C83.69 52.69 84.53 51.4 85.31 50.06C85.37 49.78 85.48 49.5 85.65 49.33C85.76 49.5 85.82 49.5 85.76 49.55C85.59 50.39 85.87 49.89 85.76 50.84C85.76 50.62 85.48 51.79 85.31 51.68C85.2 51.68 85.2 51.85 85.09 51.96C84.75 52.58 84.42 53.13 84.14 53.81C84.14 54.03 83.97 54.2 83.92 54.31C83.42 54.65 83.08 55.04 82.69 55.43C82.69 55.6 82.52 55.65 82.41 55.71C82.13 56.33 79.78 58 79.17 58C78.89 58 77.55 57.89 77.27 57.66C76.71 57.16 75.82 56.54 75.48 55.76C75.2 55.09 75.2 54.25 75.42 53.41C75.7 52.01 76.04 50.67 76.54 49.33C76.6 49.16 76.65 48.94 76.65 48.77C76.71 48.66 76.65 48.6 76.65 48.43C76.31 48.49 76.09 48.88 75.81 48.93C75.53 49.04 75.25 49.15 75.03 49.32C74.99 49.6933 74.86 50.0467 74.64 50.38C74.42 50.6 74.3 50.88 74.08 51.16C73.8 50.99 73.52 51.16 73.24 51.38C72.79 51.77 72.4 52.11 71.9 52.5C71.79 52.61 71.62 52.67 71.51 52.89C71.01 53.51 70.39 53.95 69.72 54.46C69.66 54.57 69.55 54.57 69.44 54.74C69.1 55.41 68.43 55.75 67.93 56.31C67.76 56.53 67.59 56.76 67.37 56.98C66.47 57.71 65.47 57.99 64.52 57.88C64.07 57.82 63.68 57.54 63.34 57.15C62.95 56.76 62.78 56.26 62.84 55.47C62.84 54.85 62.95 54.3 63.18 53.68C64.08 50.88 65.42 48.42 67.04 46.07C67.43 45.34 67.94 44.67 68.33 43.89C68.55 43.67 68.72 43.39 68.61 43.05C68.44 42.88 68.22 42.88 67.99 43.11C67.88 43.28 67.71 43.39 67.49 43.56C66.93 44.12 66.37 44.68 65.81 45.13C65.47 45.52 65.19 45.86 64.97 46.36C64.69 47.03 64.35 47.59 63.91 48.09C63.41 48.59 62.96 49.04 62.62 49.6C62.28 50.05 62.06 50.55 61.78 51C61.67 51.28 61.44 51.67 61.28 51.95C61.17 52.12 61 52.34 60.89 52.51C60.83 52.51 60.72 52.4 60.67 52.4L60.65 52.41Z" fill="#3B3B42"/>
<path d="M85.5401 44.97L85.6001 44.91C85.7701 44.69 85.8801 44.63 86.0501 44.52C86.6701 44.41 88.0601 43.4 88.6201 43.74C88.7901 43.96 89.3501 44.24 89.5701 44.47C89.7901 44.75 89.8501 45.14 89.6801 45.7C89.3401 46.43 88.9501 47.1 88.5101 47.99C88.4001 48.33 88.2901 48.61 88.2301 48.83C88.0101 49.33 87.7801 50.01 87.5001 50.51C87.2801 51.18 88.2801 49.06 88.1701 49.62C88.1701 49.79 88.0601 49.96 88.0001 50.07C87.5501 51.19 87.5501 50.97 87.5001 51.97C87.5001 52.53 87.2801 55.38 87.3301 55.89C87.3901 56.28 87.6101 56.51 87.7801 56.73C88.0001 56.84 88.2801 57.07 88.6201 57.18C88.9001 57.4 89.1801 57.29 89.5201 57.24C94.1601 55.56 92.4901 54.95 95.1701 52.09C95.6701 51.36 96.2901 50.69 96.5701 49.8C96.5701 49.76 96.6267 49.6467 96.7401 49.46C97.0201 50.02 96.4001 50.8 97.1901 50.97C96.0201 53.1 95.1801 56.17 93.2701 57.29C92.7101 58.02 88.9101 61.37 86.4501 60.42C85.6701 60.7 84.9401 59.92 84.1001 59.58C83.5401 59.36 82.9801 58.91 82.4801 58.35C82.2001 57.62 81.9201 56.84 81.9201 56.11C81.8101 55.77 81.8101 55.38 81.8101 55.1C81.9801 54.43 81.8701 53.14 82.0901 52.69C82.1501 52.41 82.2601 52.13 82.2601 51.79C82.3701 51.73 82.2601 51.45 82.6501 51.4C82.7101 51.4 82.7601 51.18 82.8201 51.12C83.1001 50.73 83.1601 50.39 83.4401 50C83.4401 50 82.2701 51.18 82.9401 50.06C83.3901 48.94 84.3901 47.71 84.7301 46.93C84.7301 46.82 84.8401 46.65 84.8401 46.65C85.0101 46.31 85.1801 46.09 85.0601 45.7C85.0001 45.48 85.0601 45.25 85.2301 44.92C85.3401 44.98 85.4001 45.03 85.5701 44.98L85.5401 44.97ZM90.6901 38.87C90.5801 39.04 90.4701 39.15 90.4101 39.37C90.4101 39.43 90.4101 39.54 90.3001 39.65C90.1301 39.82 89.9601 40.04 89.7401 40.32C89.6301 40.49 89.1801 40.71 88.9001 40.77C88.7901 40.71 88.6201 40.83 88.5101 40.94C88.1701 41.16 87.9501 41.11 87.7301 41C87.5601 40.89 87.4501 40.89 87.2801 40.89C87.0601 40.89 86.8901 40.89 86.6601 40.83C86.7201 40.77 86.7701 40.66 86.8301 40.61C86.8301 40.44 86.9401 40.27 87.0001 40.05C87.1101 39.77 87.2201 39.6 87.3901 39.32C87.3901 39.21 87.5601 39.1 87.5601 39.04C87.5601 38.7 87.8401 38.42 88.0101 38.09C88.1201 37.92 88.2301 37.75 88.3501 37.59C88.4601 37.48 88.5701 37.37 88.6901 37.37C88.8001 37.31 88.9101 37.31 88.9701 37.37C88.9701 37.48 89.0801 37.48 89.1901 37.43C89.3001 37.37 89.3601 37.32 89.4101 37.37C89.6301 37.48 89.9101 37.54 90.1401 37.59C90.5301 37.76 90.8101 38.04 91.0401 38.43C90.8701 38.6 90.8201 38.77 90.7001 38.88L90.6901 38.87Z" fill="#3B3B42"/>
<path d="M112.23 52.36C111.95 52.92 111 54.15 111 54.77C110.94 54.83 110.78 54.99 110.66 55.05C110.49 55.22 110.32 55.44 110.21 55.72C110.1 56 109.93 56.11 109.82 56.34C109.04 57.74 108.53 58.52 107.25 59.75C106.91 60.03 103.95 62.88 103.73 63.16C102.11 64.5 99.9299 63.89 98.2999 63.94C97.8499 63.94 97.3999 63.88 97.1299 63.72C96.6299 63.44 95.5099 62.99 95.1699 62.49C94.6699 61.26 93.3799 60.42 93.2699 58.69C93.2099 58.24 92.9899 57.96 92.9299 57.51C92.9899 55.72 93.2699 53.93 93.4899 52.08C93.8299 50.79 94.1099 49.39 94.3299 48.11C94.8899 45.7 95.0599 45.42 96.1199 43.24C96.6799 41.79 97.1799 41.67 97.7399 40.22C98.1299 39.44 98.5799 38.65 99.0299 37.98C99.3699 37.14 99.9299 36.36 100.43 35.52C101.49 33.67 102.67 32.05 103.9 30.71C104.74 29.87 105.63 28.98 106.47 28.25C106.97 27.86 107.48 27.41 107.98 27.24C108.15 27.13 108.32 27.07 108.48 27.02C109.26 26.96 109.99 27.08 110.55 27.64C111.11 28.14 111.28 28.93 111.11 29.99C111 30.66 110.94 31.33 110.77 31.95C110.71 32.45 110.49 32.9 110.21 33.46C109.82 34.41 109.37 35.31 108.76 36.2C108.37 36.93 107.92 37.65 107.53 38.38C106.86 39.39 106.3 40.45 105.63 41.4C104.46 42.97 103.45 44.65 102.39 46.21C100.66 49.18 100.82 49.68 100.21 52.64C99.9899 53.82 100.1 54.49 100.04 55.66C100.1 56 100.26 58.18 100.32 58.4C100.49 59.18 100.66 59.46 100.99 60.19C101.1 60.41 101.88 60.58 102.16 60.69C102.55 60.97 105.52 58.96 105.91 58.68C106.81 58.18 107.53 57.34 108.32 56.55C109.16 55.77 109.55 54.87 110.28 53.81C111.29 52.47 111.62 51.35 112.69 49.89C113.47 49.78 113.03 50.95 112.24 52.35L112.23 52.36ZM103.28 42.29C105.07 39.44 105.35 38.99 106.97 35.91C107.59 34.73 108.09 33.56 108.7 32.39C108.98 31.55 109.15 30.71 109.26 29.87C109.37 29.59 109.37 29.42 109.09 29.53C108.81 29.59 108.64 29.7 108.47 29.81C107.74 30.09 107.07 30.65 106.57 31.43C106.18 31.88 105.9 32.38 105.45 32.83C104.95 33.45 104.67 34.06 104.44 34.79C104.16 35.35 103.88 36.02 103.6 36.58C103.21 37.75 102.65 38.93 102.09 40.1C101.87 40.66 101.7 41.28 101.47 41.83C100.8 43.73 101.08 42.78 100.46 44.68C100.29 45.13 100.4 46.41 101.13 45.63C101.97 44.4 102.53 43.56 103.26 42.27L103.28 42.29Z" fill="#3B3B42"/>
<path d="M115.02 49.84C115.02 49.95 114.91 50.06 114.8 50.12C114.74 50.18 114.63 50.23 114.63 50.4C114.57 50.62 114.52 50.68 114.35 50.74C114.24 50.8 114.24 50.85 114.18 51.19C114.29 51.19 114.35 51.19 114.4 51.25V51.31H114.01C114.07 51.14 114.07 50.97 114.07 50.86H113.96C113.9 51.25 113.85 51.64 113.79 52.04C113.9 52.1 113.96 52.15 114.01 52.15C114.07 52.54 114.07 52.88 114.07 53.27C114.07 53.66 114.18 54 114.29 54.28C114.46 54.5 114.91 55.73 115.07 55.96C115.85 56.74 116.8 57.75 117.7 57.81C117.98 57.87 119.6 57.59 119.88 57.53C121.22 57.14 122.51 56.41 123.74 55.46C124.69 54.73 125.59 53.89 126.54 53.11C126.6 53.05 126.65 53 126.71 52.94C127.05 52.55 127.38 52.21 127.72 51.82C128.34 51.2 128.89 50.59 129.4 49.86C129.57 49.58 129.74 49.3 130.07 49.19C129.96 49.69 129.85 50.14 129.62 50.59C129.56 50.76 129.45 50.93 129.34 51.04C129 51.43 128.72 51.77 128.5 52.22C128.33 52.44 128.11 52.67 127.94 52.89C127.88 52.95 127.83 53.06 127.72 53.23C127.89 53.17 128 53.12 128.17 53.06C128.11 53.4 127.83 53.45 127.78 53.73C127.84 53.79 127.84 53.84 127.95 53.9C127.78 54.18 127.61 54.35 127.39 54.57C127.05 54.85 126.72 55.19 126.44 55.52C125.94 56.08 125.38 56.53 124.82 56.97C124.54 57.19 124.32 57.42 124.04 57.59C123.82 57.76 123.59 57.87 123.37 58.04C123.03 58.21 122.7 58.38 122.36 58.6C121.8 58.94 121.19 59.22 120.57 59.33C120.4 59.39 120.23 59.44 120.07 59.5C119.4 59.72 118.73 59.84 118.06 59.89C117.28 60 113.98 59.39 113.25 59.11C111.29 58.33 110.9 57.38 110.01 56.59C109.67 56.31 109.39 55.86 109.23 55.41C108.95 54.68 108.89 53.9 108.84 53.06C108.84 51.33 109.29 49.65 110.01 48.08C110.123 47.8533 110.16 47.5733 110.12 47.24C109.84 47.41 109.67 47.52 109.56 47.86C109.39 48.36 109.17 48.81 108.89 49.31C108.89 48.81 109.11 48.47 109.28 48.08C109.73 47.07 110.23 46.12 110.85 45.23C111.47 44.28 112.14 43.44 112.92 42.66C113.7 41.82 114.54 41.09 115.44 40.53C115.66 40.42 115.83 40.36 116 40.25C116.28 40.14 116.56 40.08 116.73 40.36C116.9 40.53 117.12 40.47 117.23 40.58C117.4 40.69 117.45 40.92 117.57 41.03C118.13 41.31 120.26 41.87 120.76 42.2C120.93 42.31 121.04 42.54 121.15 42.76C121.43 43.26 121.65 43.82 122.05 44.16C122.16 44.27 122.22 44.5 122.27 44.66C122.38 45.33 122.44 45.95 122.27 46.67C122.16 47.45 121.82 48.18 121.43 48.85C121.21 49.24 120.98 49.58 120.81 50.03C120.7 50.42 120.47 50.76 120.25 51.15C120.03 51.6 119.63 51.88 119.24 51.99C118.9 52.16 118.51 52.21 118.18 52.16C118.01 52.1 117.84 52.16 117.73 51.94C117.73 51.88 117.67 51.88 117.67 51.88C117.22 51.94 116.94 51.43 116.61 51.26C116.55 51.2 116.5 51.04 116.5 50.98C116.61 50.76 116.5 50.64 116.44 50.48C116.22 50.03 115.99 49.53 115.71 49.08C115.65 48.91 115.49 48.86 115.32 49.02C115.26 49.3 115.04 49.52 115.04 49.86L115.02 49.84ZM109.71 54.88C109.77 55.05 109.82 55.16 109.88 55.33C109.88 55.5 110.05 55.61 109.94 55.83C109.88 55.77 109.83 55.77 109.83 55.72C109.55 55.16 109.44 54.43 109.33 53.71C109.27 53.65 109.33 53.6 109.33 53.54C109.33 52.7 109.33 51.92 109.55 51.08C109.61 50.91 109.66 50.74 109.66 50.58V50.19C109.49 50.53 109.38 50.75 109.32 50.97C109.26 51.25 109.21 51.47 109.15 51.75C108.93 53.2 108.98 54.55 109.6 55.72C109.71 55.94 109.88 56.11 110.05 56.34C110.16 56.45 110.27 56.51 110.44 56.56C110.44 56.62 110.5 56.56 110.61 56.56C110.44 56.28 110.27 56.06 110.16 55.78C109.99 55.44 109.99 55.11 109.82 54.83C109.76 54.83 109.71 54.89 109.71 54.89V54.88ZM109.71 51.3C109.43 52.2 109.49 53.03 109.6 53.87C109.6 53.93 109.66 53.93 109.71 53.98C109.77 53.36 109.82 52.8 109.88 52.25C109.94 51.86 109.99 51.47 109.82 51.13C109.76 51.19 109.71 51.24 109.71 51.3ZM116.76 46.83C116.65 47 116.48 47.22 116.37 47.45C116.15 47.84 116.2 48.12 116.48 48.29C116.65 48.4 116.87 48.51 116.98 48.68C117.32 49.07 117.76 49.02 118.21 48.96C118.6 48.85 118.88 48.46 119.1 48.06C119.49 47.11 119.72 46.94 120.05 45.99C120.95 43.86 119.15 44.37 118.32 45.04C117.7 45.49 117.26 46.21 116.75 46.83H116.76Z" fill="#3B3B42"/>
</g>
<defs>
<clipPath id="clip0_516_6">
<rect width="101.07" height="37.76" fill="white" transform="translate(29 27)"/>
</clipPath>
</defs>
</svg>
