<svg width="160" height="92" viewBox="0 0 160 92" fill="none" xmlns="http://www.w3.org/2000/svg">
<path d="M35.33 50.3199V37.6299C35.33 35.5999 35.46 34.6999 34 34.6999V34.3999H43.53V34.6999C42.1 34.6999 42.16 35.2299 42.16 37.6299V50.5499C42.16 54.4799 44.23 56.1499 47.39 56.1499C50.95 56.1499 52.75 53.6799 52.75 50.5499V41.8899C52.75 39.1599 51.88 34.6999 48.72 34.6999V34.3999H57.45L57.48 34.6999C53.75 34.6999 53.05 39.1599 53.05 41.8899V50.5499C53.05 54.9499 50.12 58.1399 44.26 58.1399C39.73 58.1399 35.33 55.7399 35.33 50.3099V50.3199Z" fill="#3B3B42"/>
<path d="M72.4301 47.3199C71.3001 48.6199 69.3701 48.7499 68.0301 47.6499C67.4001 47.0499 66.9601 46.3499 66.9601 45.5799C66.9601 45.1499 65.8901 45.3799 64.5301 47.4499V54.0799C64.5301 55.9099 64.7001 57.2399 65.9001 57.5799V57.8499H57.5701V57.5799C58.8401 57.2099 58.8701 55.7799 58.8701 54.0799V45.9599C58.8701 44.7899 58.4701 44.3299 57.1001 43.8299V43.5599L64.5301 42.1599V46.8199C66.8901 43.2599 67.8901 42.8599 68.8901 42.3899C69.8201 41.9599 71.2201 42.1599 72.0901 42.9199C73.3901 44.0499 73.5601 46.0499 72.4201 47.3199H72.4301Z" fill="#3B3B42"/>
<path d="M92.88 49.89C92.88 56.48 88.48 58.15 84.22 58.15C81.59 58.15 80.02 57.52 79.12 56.68C78.05 57.38 74.49 58.21 74.49 57.68V36.8C74.49 35.67 74.16 35.17 72.79 34.67V34.4L80.12 33V44.69C81.09 43.02 82.75 42.16 85.85 42.16C90.45 42.16 92.88 45.76 92.88 49.89V49.89ZM86.19 50.36C86.19 46.46 85.26 43.17 82.86 43.17C80.63 43.17 80.13 45.9 80.13 48.47V52C80.13 55.8 80.9 57.86 82.89 57.86C84.76 57.86 86.19 55.7 86.19 50.37V50.36Z" fill="#3B3B42"/>
<path d="M111.33 55.72C110.86 57.19 109.13 58.15 107.03 58.15C107.03 58.15 103.33 58.15 103.03 55.15C102.6 56.88 100.9 58.15 98.5301 58.15C97.2601 58.15 94.3701 57.58 94.3701 54.75C94.3701 51.42 97.0701 50.79 103 49.39V47.26C103 43.8 101.04 41.93 98.7401 43.13C98.7401 43.13 98.0101 43.56 99.1401 43.96C99.7101 44.16 100.07 44.63 100.34 45.23C100.84 46.46 100.27 47.79 99.0401 48.33C97.8401 48.8 96.4801 48.23 95.9801 47.03C95.6501 46.16 95.8101 45.16 96.3801 44.57C96.7801 44.14 97.3801 43.54 98.6101 42.87C100.11 42.07 101.74 42.17 101.74 42.17C106.1 42.17 108.53 44.9 108.53 48.83V53.79C108.53 53.79 108.53 56.19 110.13 56.12C110.13 56.12 110.96 56.12 111.13 55.55L111.33 55.72V55.72ZM103 49.72C100.27 50.32 100.3 52.35 100.3 53.92C100.3 53.92 100.27 56.12 101.6 56.12C102.17 56.12 102.63 55.65 103 54.85V49.72Z" fill="#3B3B42"/>
<path d="M129.42 57.5799V57.8499H121.09V57.5799C122.36 57.2099 122.42 55.7499 122.42 54.0499V47.3599C122.42 45.4599 121.72 44.5599 120.12 44.5599C119.39 44.5599 118.62 45.1599 118.16 45.8599V54.0899C118.16 55.9199 118.33 57.2499 119.53 57.5899V57.8599H111.2V57.5899C112.47 57.2199 112.5 55.8199 112.5 54.0899V45.9599C112.5 44.7899 112.13 44.3299 110.77 43.8299V43.5599L118.16 42.1599V45.3899C119.03 43.6299 120.79 42.1599 122.59 42.1599C125.25 42.1599 128.05 43.2299 128.05 47.2199V54.0499C128.05 55.8799 128.25 57.2799 129.42 57.5799V57.5799Z" fill="#3B3B42"/>
</svg>
