<svg width="160" height="92" viewBox="0 0 160 92" fill="none" xmlns="http://www.w3.org/2000/svg">
<path d="M64.36 37.0002V37.2202C63.27 37.2202 61.6 38.0702 59.61 42.8702L54.84 56.2102H53.86C51.32 50.2902 49.69 46.4702 48.6 43.9902L44.24 56.2102H43.26C36.37 40.1402 36.02 39.4302 36.02 39.4302C35.09 37.2502 34.71 37.2702 34 37.2202V37.0002H42.51V37.2202C40.76 37.2202 42.16 40.3802 42.16 40.3802L46.28 49.7402L48.46 43.6602C46.8 39.7902 46.63 39.4302 46.63 39.4302C45.7 37.2502 45.32 37.2702 44.61 37.2202V37.0002H53.12V37.2202C51.37 37.2202 52.77 40.3802 52.77 40.3802L56.86 49.7602L59.32 42.8602C60 40.9202 59.4 37.2102 56.62 37.2102V36.9902H64.37L64.36 37.0002Z" fill="#3B3B42"/>
<path d="M72.67 37.0002H72.81C79.71 52.8202 80.17 53.7202 80.17 53.7202C81.15 55.9002 82.08 55.9302 82.62 55.9802V56.2002H73.07V55.9802C75.25 55.9802 73.62 52.7902 73.62 52.7902L72.75 50.9102H67.4C66.85 52.1602 67.35 55.9802 70.62 55.9802V56.2002H62.76V55.9802C63.58 55.9202 65.05 55.7102 67.15 50.9102L72.67 37.0002ZM69.91 44.5302L67.48 50.6702H72.64L69.91 44.5302Z" fill="#3B3B42"/>
<path d="M101.86 37.0002V37.2202C100.69 37.2202 98.9401 38.0702 96.8101 42.8702L91.4401 56.2102H90.6501C83.3401 40.1402 82.9601 39.4302 82.9601 39.4302C81.9801 37.2502 81.5701 37.2802 80.8101 37.2202V37.0002H89.8901V37.2202C88.0101 37.2202 89.5101 40.3802 89.5101 40.3802L93.7401 49.7902L96.5501 42.8602C97.3701 40.8402 96.8801 37.2102 93.6001 37.2102V36.9902H101.86V37.0002Z" fill="#3B3B42"/>
<path d="M119.18 50.8602V56.2102H103.25V55.9602C104.4 55.9602 104.83 54.3202 104.83 52.4702V40.7602C104.83 39.0702 104.45 37.2102 103.25 37.2102V36.9902H118.83V42.5902H118.58C118.58 37.2702 111.13 37.2402 111.13 37.2402H110.15V46.3802H112.36C112.36 46.3802 115.28 46.4602 115.58 43.1602H115.83V49.8402H115.58C115.28 46.5702 112.39 46.6202 112.36 46.6202H110.15V55.9502H111.13C111.13 55.9502 118.93 56.2502 118.93 50.8502H119.18V50.8602Z" fill="#3B3B42"/>
</svg>
